<?xml version="1.0" encoding="UTF-8"?>
<svg version="1.1" xmlns="http://www.w3.org/2000/svg" width="300" height="300">
<path d="M0 0 C1.08667969 0.51304688 2.17335937 1.02609375 3.29296875 1.5546875 C13.79618143 6.57845842 22.75624243 12.86013227 31.7734375 20.203125 C33.24067018 21.38720751 34.74669211 22.52497807 36.2890625 23.609375 C36.85367188 24.06828125 37.41828125 24.5271875 38 25 C38 25.66 38 26.32 38 27 C38.598125 27.268125 39.19625 27.53625 39.8125 27.8125 C41.99847854 28.99917406 43.41332594 30.09599113 45 32 C45 32.66 45 33.32 45 34 C45.66 34 46.32 34 47 34 C73.67457279 61.65187395 86.60453677 101.19440637 86.42138672 139.01489258 C85.89357088 162.92914477 79.69129681 184.76487254 69 206 C68.55269531 206.928125 68.10539062 207.85625 67.64453125 208.8125 C63.51143157 216.9574941 57.94585957 224.08360888 52.35058594 231.26464844 C51.13748925 232.82334173 49.94619893 234.39894846 48.7578125 235.9765625 C48.17773438 236.64429688 47.59765625 237.31203125 47 238 C46.34 238 45.68 238 45 238 C44.77828125 238.55429688 44.5565625 239.10859375 44.328125 239.6796875 C32.27664381 260.73433405 -1.03273838 274.59448414 -23 280.8125 C-61.00662142 290.87793538 -99.00215625 286.62044216 -134 269 C-134.928125 268.55269531 -135.85625 268.10539062 -136.8125 267.64453125 C-152.71837269 259.57324764 -167.84387905 246.84230192 -179 233 C-179.76957031 232.05640625 -180.53914063 231.1128125 -181.33203125 230.140625 C-206.33477662 198.93700439 -217.51692868 159.56383518 -213.69091797 119.78662109 C-211.35942871 100.577889 -205.66806105 83.21656263 -197 66 C-196.55269531 65.071875 -196.10539062 64.14375 -195.64453125 63.1875 C-188.92270459 49.94096769 -178.78125487 37.20161751 -168 27 C-167.34 27 -166.68 27 -166 27 C-166 26.34 -166 25.68 -166 25 C-123.20332901 -16.28410674 -52.88141382 -26.12104379 0 0 Z M-71.203125 5.6640625 C-75.22469916 5.61250386 -77.42933557 6.07125926 -81 8 C-85.55331017 13.54694428 -88.3525685 20.42331562 -91.43457031 26.85058594 C-93.97663042 31.96483663 -96.89358519 36.84418904 -99.8125 41.75 C-100.99717582 43.7662917 -102.18075583 45.78322762 -103.36328125 47.80078125 C-103.95963379 48.8160791 -104.55598633 49.83137695 -105.17041016 50.87744141 C-114.03536819 66.00725369 -122.74787772 81.22209975 -131.2578125 96.55444336 C-134.35608711 102.12433854 -137.54485745 107.61025076 -140.91381836 113.02148438 C-142.16041254 114.91602025 -142.16041254 114.91602025 -142 117 C-103.885 117.495 -103.885 117.495 -65 118 C-66.58759579 122.76278737 -67.88174029 125.71878656 -70.5 129.8125 C-73.90384582 135.2311222 -77.23780635 140.68225654 -80.5 146.1875 C-80.94537109 146.93040283 -81.39074219 147.67330566 -81.84960938 148.4387207 C-84.17194652 151.97650488 -84.17194652 151.97650488 -85 156 C-118.66 156 -152.32 156 -187 156 C-182.24343543 146.48687086 -177.505487 137.02788148 -172.4375 127.6875 C-171.91220703 126.70716797 -171.38691406 125.72683594 -170.84570312 124.71679688 C-167.69014934 118.88730619 -164.30333015 113.28903673 -160.70556641 107.72338867 C-157.91547886 103.26827464 -155.47774457 98.6334718 -153 94 C-145.33514986 80.02277725 -137.44073313 66.20395731 -129.15063477 52.58740234 C-125.75952422 47.00440252 -122.52729336 41.37050969 -119.42871094 35.62011719 C-117.25271284 31.62954788 -114.94521997 27.72042337 -112.625 23.8125 C-112.17511719 23.05130859 -111.72523437 22.29011719 -111.26171875 21.50585938 C-110.1761293 19.66959637 -109.08831472 17.83464912 -108 16 C-112.29398184 14.56867272 -114.95114803 16.49949836 -118.8125 18.375 C-119.56136475 18.73352051 -120.31022949 19.09204102 -121.08178711 19.46142578 C-126.25079358 21.99646353 -131.20745814 24.7822526 -136.0625 27.875 C-136.96415894 28.44613525 -136.96415894 28.44613525 -137.8840332 29.02880859 C-139.29682074 29.96008271 -140.65531406 30.97283895 -142 32 C-142 32.66 -142 33.32 -142 34 C-143.65 34.66 -145.3 35.32 -147 36 C-147 36.66 -147 37.32 -147 38 C-147.54140625 38.2165625 -148.0828125 38.433125 -148.640625 38.65625 C-151.81645344 40.46499997 -154.20728081 42.91723799 -156.75 45.5 C-157.25660156 45.99886719 -157.76320312 46.49773438 -158.28515625 47.01171875 C-161.12805599 49.53061637 -161.12805599 49.53061637 -162 53 C-162.66 53 -163.32 53 -164 53 C-164.99 55.475 -164.99 55.475 -166 58 C-166.66 58 -167.32 58 -168 58 C-169.21096095 59.44661104 -169.21096095 59.44661104 -170.35546875 61.375 C-170.80970215 62.10468994 -171.26393555 62.83437988 -171.73193359 63.58618164 C-172.21227051 64.3827417 -172.69260742 65.17930176 -173.1875 66 C-173.92734131 67.22481079 -173.92734131 67.22481079 -174.68212891 68.47436523 C-192.58188714 98.6944703 -198.23767936 133.45214201 -189.93359375 167.71484375 C-185.92747926 182.66060195 -179.39070318 196.06737271 -171 209 C-170.46890625 209.94488281 -169.9378125 210.88976562 -169.390625 211.86328125 C-168.93171875 212.56839844 -168.4728125 213.27351562 -168 214 C-167.34 214 -166.68 214 -166 214 C-165.01 216.475 -165.01 216.475 -164 219 C-163.34 219 -162.68 219 -162 219 C-161.65195313 219.83724609 -161.65195313 219.83724609 -161.296875 220.69140625 C-157.48825883 227.4712019 -150.20226047 233.34830464 -144 238 C-143.34 238 -142.68 238 -142 238 C-142 238.66 -142 239.32 -142 240 C-140.47021578 241.2439478 -140.47021578 241.2439478 -138.44921875 242.42578125 C-137.69374756 242.89024658 -136.93827637 243.35471191 -136.15991211 243.83325195 C-135.34401611 244.32140381 -134.52812012 244.80955566 -133.6875 245.3125 C-132.85806885 245.81160889 -132.0286377 246.31071777 -131.17407227 246.82495117 C-117.3059809 255.06949022 -100.44221515 263.32239638 -84 263 C-83.64921387 262.36835938 -83.29842773 261.73671875 -82.93701172 261.0859375 C-75.84136277 248.32434275 -68.656394 235.63208088 -61.26220703 223.04077148 C-56.38823153 214.7187683 -51.6738568 206.31308792 -46.98193359 197.88745117 C-42.48455525 189.82566804 -37.84085452 181.86093889 -33.13476562 173.91992188 C-31.19830583 170.64360522 -29.27997479 167.35721143 -27.375 164.0625 C-26.72273437 162.93972656 -26.07046875 161.81695312 -25.3984375 160.66015625 C-23.84489406 158.20584184 -23.84489406 158.20584184 -24 156 C-37.53 156 -51.06 156 -65 156 C-59.3673257 144.7346514 -59.3673257 144.7346514 -56.5546875 139.9140625 C-55.95269531 138.88152344 -55.35070312 137.84898437 -54.73046875 136.78515625 C-54.11816406 135.74230469 -53.50585938 134.69945312 -52.875 133.625 C-52.25496094 132.55894531 -51.63492188 131.49289063 -50.99609375 130.39453125 C-47.5665045 124.53103995 -47.5665045 124.53103995 -46 122 C-45.67135452 121.29783356 -45.34270905 120.59566711 -45.00410461 119.8722229 C-41.66396186 116.75188092 -37.78437316 117.47817892 -33.38793945 117.54589844 C-32.40239075 117.54531433 -31.41684204 117.54473022 -30.40142822 117.54412842 C-27.13835636 117.5469189 -23.87619386 117.57805713 -20.61328125 117.609375 C-18.35312906 117.61683394 -16.09297041 117.62252851 -13.83280945 117.62652588 C-7.87977286 117.64180941 -1.92712572 117.68111503 4.02575684 117.7253418 C10.09849783 117.76623568 16.17130167 117.78452433 22.24414062 117.8046875 C34.16293167 117.84760633 46.08143347 117.91589082 58 118 C56.88109827 120.25366508 55.76050239 122.50646051 54.63891602 124.75878906 C54.32367226 125.3941861 54.0084285 126.02958313 53.6836319 126.68423462 C51.60806954 130.848057 49.43386254 134.82790174 46.9375 138.75 C44.15689243 143.01982444 44.15689243 143.01982444 42.05126953 147.63061523 C40.70018593 150.84288542 39.66842716 152.73027749 37 155 C31.77234446 155.6904386 26.76910661 155.19267904 21.53274536 154.74710083 C8.71222369 153.6737331 8.71222369 153.6737331 -2.87451172 158.0703125 C-7.568787 163.82979892 -10.0741985 170.61700167 -12.62060547 177.53125 C-14.82115378 183.06494743 -17.8991277 187.99587738 -21 193.0625 C-22.16781338 195.0485805 -23.33187787 197.03687009 -24.4921875 199.02734375 C-26.25369449 202.02859365 -28.01695057 205.02879739 -29.78222656 208.02783203 C-37.16861402 220.57984981 -44.36344965 233.20335929 -51.2890625 246.015625 C-54.74943702 252.40739959 -58.3524888 258.71340716 -62 265 C-52.98685018 269.50657491 -33.33921606 262.53958716 -23.98828125 259.44140625 C-12.13102677 255.2542678 -1.53600573 249.8357724 9 243 C10.41732422 242.20335937 10.41732422 242.20335937 11.86328125 241.390625 C12.56839844 240.93171875 13.27351562 240.4728125 14 240 C14 239.34 14 238.68 14 238 C15.0828125 237.6596875 15.0828125 237.6596875 16.1875 237.3125 C18.8769719 236.05741311 20.47551028 234.7659099 22.484375 232.6171875 C24.43206111 230.53898634 26.46930991 228.55956939 28.5 226.5625 C34.82032211 221.06284562 34.82032211 221.06284562 38 214 C38.66 214 39.32 214 40 214 C41.21096095 212.55338896 41.21096095 212.55338896 42.35546875 210.625 C42.80970215 209.89531006 43.26393555 209.16562012 43.73193359 208.41381836 C44.21227051 207.6172583 44.69260742 206.82069824 45.1875 206 C45.68072754 205.18345947 46.17395508 204.36691895 46.68212891 203.52563477 C65.30840957 172.07894418 70.14589909 136.56184494 61.26855469 101.07617188 C57.05386239 86.49704757 50.0662186 69.58440239 40 58 C39.34 58 38.68 58 38 58 C37.01 55.525 37.01 55.525 36 53 C35.34 53 34.68 53 34 53 C33.7834375 52.45859375 33.566875 51.9171875 33.34375 51.359375 C31.53500003 48.18354656 29.08276201 45.79271919 26.5 43.25 C26.00113281 42.74339844 25.50226563 42.23679688 24.98828125 41.71484375 C22.46938363 38.87194401 22.46938363 38.87194401 19 38 C19 37.34 19 36.68 19 36 C17.35 35.34 15.7 34.68 14 34 C14 33.34 14 32.68 14 32 C12.55338896 30.78903905 12.55338896 30.78903905 10.625 29.64453125 C9.89531006 29.19029785 9.16562012 28.73606445 8.41381836 28.26806641 C7.6172583 27.78772949 6.82069824 27.30739258 6 26.8125 C5.18345947 26.31927246 4.36691895 25.82604492 3.52563477 25.31787109 C-20.67215078 10.98521043 -43.84898797 8.53291102 -71.203125 5.6640625 Z " fill="#003E71" transform="translate(214,14)"/>
</svg>
