<svg width="464" height="511.863" xmlns="http://www.w3.org/2000/svg" clip-rule="evenodd" fill-rule="evenodd" image-rendering="optimizeQuality" text-rendering="geometricPrecision" shape-rendering="geometricPrecision">

 <g>
  <title>Layer 1</title>
  <path fill="white" id="svg_1" d="m21.123,259.247l16.714,0l0,-206.852c0,-28.794 23.601,-52.395 52.395,-52.395l230.505,0a7.998,7.998 0 0 1 6.39,3.183l96.876,104.809a7.937,7.937 0 0 1 2.118,5.411l0.041,0l0,145.844l16.714,0c11.618,0 21.124,9.525 21.124,21.124l0,163.863c0,11.599 -9.526,21.124 -21.124,21.124l-17.058,0c-3.001,25.877 -25.473,46.505 -52.051,46.505l-283.535,0c-26.72,0 -49.082,-20.526 -52.055,-46.505l-17.054,0c-11.597,0 -21.123,-9.505 -21.123,-21.124l0,-163.863c0,-11.619 9.506,-21.124 21.123,-21.124zm32.731,0l356.292,0l0,-122.722l-32.219,0l0,-0.033l-0.124,0c-19.111,-0.302 -34.068,-5.373 -44.736,-14.486c-11.073,-9.458 -17.282,-22.969 -18.52,-39.763l-0.075,-1.098l0,-65.129l-224.24,0c-20.032,0 -36.378,16.346 -36.378,36.379l0,206.852zm355.795,206.111l-355.305,0c2.862,17.157 17.981,30.488 35.888,30.488l283.535,0c17.803,0 32.993,-13.394 35.882,-30.488zm-177.827,-332.58c1.2,-5.152 6.352,-8.357 11.505,-7.158c5.153,1.2 8.357,6.352 7.158,11.505l-20.773,88.972c-1.199,5.153 -6.352,8.358 -11.504,7.158c-5.153,-1.199 -8.358,-6.352 -7.158,-11.505l20.772,-88.972zm-32.519,71.317c3.972,3.477 4.377,9.521 0.9,13.493c-3.478,3.973 -9.521,4.377 -13.494,0.9l-36.354,-31.854c-3.972,-3.477 -4.377,-9.521 -0.9,-13.493c0.295,-0.336 0.606,-0.644 0.933,-0.927l36.321,-31.826c3.973,-3.478 10.016,-3.073 13.494,0.899c3.477,3.973 3.072,10.016 -0.9,13.494l-28.14,24.656l28.14,24.658zm77.99,14.393c-3.972,3.477 -10.016,3.073 -13.493,-0.9c-3.478,-3.972 -3.073,-10.016 0.899,-13.493l28.14,-24.658l-28.14,-24.656c-3.972,-3.478 -4.377,-9.521 -0.899,-13.494c3.477,-3.972 9.521,-4.377 13.493,-0.899l36.318,31.826c0.328,0.283 0.639,0.591 0.933,0.927c3.477,3.972 3.073,10.016 -0.899,13.493l-36.352,31.854zm53.174,-188.216l0,50.838c0.913,12.412 5.265,22.192 12.97,28.775c7.822,6.682 19.34,10.418 34.49,10.676l0,-0.03l32.219,0l0,-4.052l-79.679,-86.207zm-177.743,372.995l3.804,-19.659c8.333,2.083 15.827,3.123 22.484,3.123c6.66,0 12.024,-0.27 16.101,-0.815l0,-9.551l-12.228,-1.087c-11.05,-0.998 -18.635,-3.648 -22.758,-7.95c-4.122,-4.302 -6.182,-10.665 -6.182,-19.089c0,-11.593 2.515,-19.565 7.54,-23.911c5.029,-4.35 13.566,-6.523 25.612,-6.523c12.047,0 22.915,1.133 32.61,3.397l-3.397,19.375c-8.424,-1.358 -15.172,-2.038 -20.245,-2.038c-5.072,0 -9.375,0.226 -12.908,0.68l0,9.02l9.783,0.952c11.865,1.177 20.063,4.008 24.591,8.492c4.531,4.484 6.795,10.71 6.795,18.682c0,5.705 -0.77,10.528 -2.311,14.47c-1.541,3.94 -3.372,6.927 -5.502,8.965c-2.129,2.039 -5.141,3.602 -9.037,4.688c-3.892,1.087 -7.312,1.744 -10.255,1.97c-2.944,0.228 -6.864,0.341 -11.755,0.341c-11.775,0 -22.688,-1.177 -32.742,-3.532zm131.383,1.493l0,-30.026l-20.381,0l0,30.026l-27.175,0l0,-84.916l27.175,0l0,30.026l20.381,0l0,-30.026l27.169,0l0,84.916l-27.169,0z"/>
 </g>
</svg>