<svg xmlns="http://www.w3.org/2000/svg" fill="none" viewBox="0 0 96 96" id="Splunk--Streamline-Svg-Logos">
  <desc fill="#000000">
    Splunk Streamline Icon: https://streamlinehq.com
  </desc>
  <path fill="#ffffff" d="M11.0247 50.9481c0 0.6218 -0.1315 1.1997 -0.3946 1.7336 -0.263 0.5268 -0.63564 0.9803 -1.1033 1.3461 -0.47494 0.373 -1.03752 0.6583 -1.68781 0.8632 -0.65029 0.2048 -1.36633 0.3072 -2.14084 0.3072 -0.92793 0 -1.76088 -0.1244 -2.49154 -0.3803 -0.73066 -0.2488 -1.46864 -0.6731 -2.20661 -1.2583l1.22021 -1.9824c0.58453 0.4901 1.1106 0.8486 1.58553 1.0753 0.46762 0.2268 0.94986 0.3365 1.44671 0.3365 0.60646 0 1.08869 -0.1537 1.46133 -0.4682 0.37264 -0.3145 0.548 -0.7315 0.548 -1.2655 0 -0.2268 -0.03654 -0.4389 -0.1023 -0.6364 -0.06576 -0.1976 -0.18997 -0.4024 -0.36533 -0.6145 -0.17536 -0.2048 -0.42378 -0.4389 -0.73797 -0.6803 -0.30687 -0.2415 -0.70874 -0.5487 -1.20559 -0.9072 -0.37263 -0.2633 -0.74528 -0.5413 -1.1033 -0.8193 -0.35803 -0.2852 -0.67951 -0.5852 -0.97908 -0.9071 -0.29226 -0.3218 -0.52608 -0.6802 -0.70875 -1.0826 -0.17536 -0.395 -0.27034 -0.8559 -0.27034 -1.3606 0 -0.5852 0.12421 -1.1266 0.36533 -1.6094 0.24112 -0.4828 0.57722 -0.8925 1.001 -1.2363 0.42378 -0.3438 0.92794 -0.6071 1.52709 -0.7973 0.59183 -0.1902 1.23482 -0.2853 1.93625 -0.2853 0.73797 0 1.44671 0.0951 2.13353 0.2926 0.68678 0.1975 1.32248 0.4828 1.91438 0.8632l-1.10338 1.7849c-0.75254 -0.5267 -1.54897 -0.7973 -2.38192 -0.7973 -0.50416 0 -0.92794 0.1316 -1.25674 0.395 -0.3288 0.2633 -0.49685 0.5925 -0.49685 0.9948 0 0.3804 0.14613 0.7243 0.43839 1.0242 0.29227 0.3072 0.79643 0.7242 1.51248 1.2801 0.72335 0.5268 1.3225 0.995 1.79011 1.39 0.47495 0.395 0.84761 0.7754 1.12521 1.1265 0.2777 0.3512 0.4604 0.7023 0.5699 1.068 0.1096 0.3731 0.1608 0.7681 0.1608 1.2071Zm12.5308 -3.3431c0 0.5486 -0.0585 1.1412 -0.1753 1.7776 -0.1097 0.6364 -0.3069 1.2216 -0.5845 1.763 -0.2777 0.5413 -0.6357 0.9875 -1.0814 1.3313 -0.4457 0.3512 -1.0157 0.5267 -1.6952 0.5267 -1.1398 0 -2.0385 -0.4535 -2.6961 -1.3679 -0.6576 -0.9071 -0.9864 -2.158 -0.9864 -3.7454 0 -1.6313 0.3288 -2.9189 1.001 -3.8771 0.6649 -0.9584 1.5709 -1.4338 2.7108 -1.4338 1.0814 0 1.9362 0.4535 2.5646 1.346 0.6284 0.8998 0.9425 2.1288 0.9425 3.6796Zm3.9602 -0.139c0 -1.0607 -0.1534 -2.0264 -0.453 -2.8895 -0.3069 -0.8705 -0.7307 -1.6167 -1.2933 -2.2458 -0.5626 -0.6291 -1.2202 -1.1119 -1.9874 -1.4631 -0.7672 -0.3511 -1.6147 -0.5267 -2.5427 -0.5267 -1.0229 0 -1.9216 0.1975 -2.6961 0.5779 -0.7745 0.3877 -1.4979 0.9949 -2.1555 1.8288l-0.0219 -2.0702h-3.646v21.2801h3.6387v-8.9904c0.3581 0.4169 0.7014 0.768 1.0376 1.0534 0.3287 0.2853 0.6649 0.5194 1.0083 0.6949 0.3434 0.1756 0.7014 0.3072 1.0813 0.3804 0.38 0.0732 0.7892 0.1098 1.2202 0.1098 0.9645 0 1.8706 -0.1976 2.7035 -0.578 0.833 -0.3877 1.5563 -0.929 2.1627 -1.6313 0.6065 -0.7023 1.0814 -1.5216 1.4249 -2.4506 0.3507 -0.9363 0.5187 -1.9678 0.5187 -3.0797Zm1.6221 7.3957h3.7409V34.0425h-3.7409v20.8192Zm19.6986 0.0073V40.6628h-3.741v7.6444c0 0.6804 -0.0292 1.207 -0.0877 1.5802 -0.0584 0.373 -0.1534 0.7022 -0.2849 1.0095 -0.5261 1.1704 -1.4979 1.7629 -2.9081 1.7629 -1.1032 0 -1.8704 -0.395 -2.3089 -1.1924 -0.1753 -0.2999 -0.2922 -0.6437 -0.358 -1.0241 -0.0657 -0.3804 -0.1022 -0.9291 -0.1022 -1.6532v-8.1273h-3.741v8.0687c0 0.5486 0.0072 1.0168 0.0146 1.39 0.0073 0.373 0.0365 0.7168 0.0731 1.0094 0.0365 0.2926 0.0803 0.556 0.1315 0.7828 0.0438 0.2267 0.1169 0.4462 0.2119 0.651 0.3433 0.8705 0.8913 1.5289 1.6585 1.9752 0.7672 0.4461 1.7098 0.6657 2.8205 0.6657 1.0009 0 1.885 -0.1757 2.6449 -0.5268 0.7599 -0.3511 1.4979 -0.9217 2.2139 -1.7191l0.0073 1.902 3.7556 0.0073Zm16.1184 -0.0073v-8.0541c0 -0.5486 -0.0073 -1.0168 -0.0146 -1.4046 -0.0073 -0.3877 -0.0292 -0.7241 -0.0731 -1.0094 -0.0365 -0.2853 -0.0876 -0.534 -0.1388 -0.7462 -0.0585 -0.2194 -0.1242 -0.4316 -0.1972 -0.6364 -0.3435 -0.8486 -0.8915 -1.507 -1.6587 -1.9678 -0.7672 -0.4609 -1.7098 -0.695 -2.8276 -0.695 -1.0011 0 -1.8851 0.1756 -2.645 0.5267 -0.7599 0.3512 -1.4979 0.929 -2.2139 1.7191l-0.0073 -1.9019h-3.763V54.869h3.7703v-7.6517c0 -0.6584 0.0219 -1.1778 0.073 -1.5436 0.0438 -0.3657 0.1389 -0.7095 0.2704 -1.0387 0.2411 -0.5706 0.621 -0.9949 1.1252 -1.2875 0.5042 -0.2927 1.1033 -0.4389 1.8047 -0.4389 1.1034 0 1.8706 0.395 2.3089 1.1924 0.1681 0.2999 0.285 0.6437 0.3507 1.0168 0.0658 0.3731 0.1023 0.929 0.1023 1.6459v8.0907l3.7337 0.0073Zm15.4751 -0.9363 -5.6989 -7.0885 4.8149 -5.1646 -2.8347 -1.2217 -5.0124 5.8156h-0.3946V34.0425H67.534v20.8192h3.7702v-7.5421l5.6407 7.8274 3.485 -1.2216ZM95 48.834v-2.319l-11.3327 -5.6913v2.553l8.7824 4.2795 -8.7824 4.3379v2.4945L95 48.834Z" stroke-width="1"/>
</svg>