<svg xmlns="http://www.w3.org/2000/svg" fill="none" viewBox="0 0 96 96" id="Github-Actions--Streamline-Svg-Logos">
  <desc>
    Github Actions Streamline Icon: https://streamlinehq.com
  </desc>
  <path fill="#4a7ebf" d="M20.6827 0.999939c10.8702 0 19.6827 8.809601 19.6827 19.677761 0 10.6815 -8.5147 19.369 -19.1279 19.6637 0 0.9038 0.0399 2.6113 0.5514 3.6423 0.7095 1.4299 4.9658 4.0923 9.1399 4.0923h1.4996c0.9424 -6.709 6.7036 -11.872 13.6739 -11.872 6.9421 0 12.6865 5.121 13.6635 11.7902h7.7584c0.9774 -6.6692 6.7214 -11.7902 13.6635 -11.7902 7.6281 0 13.8122 6.1822 13.8122 13.8088 0 7.6262 -6.1841 13.8084 -13.8122 13.8084 -6.9421 0 -12.6864 -5.1212 -13.6635 -11.7905h-7.758c-0.9771 6.6693 -6.7214 11.7905 -13.6639 11.7905 -6.929 0 -12.6655 -5.1014 -13.6588 -11.7525l-1.658 0.0494c-2.73 -0.0205 -5.6141 -0.7495 -7.9306 -2.3234 -0.6315 -0.4292 -1.2537 -0.8801 -1.9027 -1.3073l-0.0002 0.8966c-0.0035 0.2898 -0.0558 4.6474 -0.06 9.4856l-0.0001 1.0244c0.0019 3.1729 0.027 6.4422 0.1017 8.8268 0.1638 5.2313 4.419 9.4534 9.1146 10.4417 0.6103 0.1282 1.6597 0.1446 2.3209 0.0875 0.9441 -6.7066 6.7045 -11.8676 13.6732 -11.8676 7.6282 0 13.8122 6.1825 13.8122 13.8088 0 7.6262 -6.184 13.8087 -13.8122 13.8087 -6.8916 0 -12.603 -5.0466 -13.6419 -11.6448h-1.1948c-8.9726 -0.4898 -14.5511 -8.7195 -14.4538 -15.3938 0.1228 -8.4002 0.0303 -16.8038 0.0289 -25.2061v-2.7774C7.80988 38.191 1 30.2304 1 20.6777 1 9.80954 9.81213 0.999939 20.6827 0.999939ZM46.1023 71.4189c-5.3981 0 -9.7744 4.3752 -9.7744 9.7723 0 5.3971 4.3763 9.7723 9.7744 9.7723 5.3985 0 9.7748 -4.3752 9.7748 -9.7723 0 -5.3971 -4.3763 -9.7723 -9.7748 -9.7723Zm0 -31.1784c-5.3981 0 -9.7744 4.3752 -9.7744 9.7723 0 5.3968 4.3763 9.772 9.7744 9.772 5.3985 0 9.7748 -4.3752 9.7748 -9.772 0 -5.3971 -4.3763 -9.7723 -9.7748 -9.7723Zm35.0854 0c-5.3985 0 -9.7744 4.3752 -9.7744 9.7723 0 5.3968 4.3759 9.772 9.7744 9.772 5.3984 0 9.7747 -4.3752 9.7747 -9.772 0 -5.3971 -4.3763 -9.7723 -9.7747 -9.7723Zm5.5668 5.6578c0.7691 0.7673 0.7903 2.0001 0.0625 2.7926l-0.0588 0.0619 -5.9886 6.0015c-0.7631 0.7649 -1.9882 0.7905 -2.7822 0.0727l-0.0632 -0.0599 -2.9319 -2.8861c-0.7944 -0.782 -0.8045 -2.0599 -0.0222 -2.8541 0.7624 -0.774 1.9952 -0.8032 2.7929 -0.0807l0.0619 0.0589 1.5026 1.4786 4.5721 -4.5817c0.7873 -0.7895 2.0655 -0.7908 2.8549 -0.0037Zm-35.2463 -0.0296c0.7691 0.7673 0.7903 2.0001 0.0626 2.793l-0.0589 0.0615 -5.9886 6.0016c-0.7631 0.7649 -1.9881 0.7904 -2.7822 0.0726l-0.0632 -0.0598 -2.9319 -2.8861c-0.7944 -0.7821 -0.8045 -2.06 -0.0222 -2.8541 0.7621 -0.774 1.9952 -0.8033 2.7929 -0.0804l0.0619 0.0585 1.5026 1.4787 4.5721 -4.5818c0.7874 -0.7891 2.0656 -0.7908 2.8549 -0.0037ZM20.6827 5.03641c-8.6405 0 -15.64522 7.00259 -15.64522 15.64129 0 8.6384 7.00472 15.6414 15.64522 15.6414s15.6452 -7.003 15.6452 -15.6414c0 -8.6387 -7.0047 -15.64129 -15.6452 -15.64129Zm-1.6279 6.29269c3.2916 1.9775 6.5387 4.023 9.7418 6.1361 2.6832 1.77 2.6765 4.98 -0.0367 6.754 -3.2602 2.1333 -6.5723 4.1788 -9.9355 6.1364 -2.7375 1.5934 -5.8016 -0.2388 -5.8759 -3.431 -0.0478 -2.0572 -0.0088 -4.1165 -0.0115 -6.1751 -0.0023 -2.0027 -0.0417 -4.0065 0.0068 -6.0083 0.0817 -3.3956 3.2077 -5.16497 6.111 -3.4121Zm-2.1698 3.2574v1.4205c-0.0003 0.7034 -0.0003 1.3973 -0.0007 2.0835l-0.0003 1.3623v2.0125c0.0003 1.5534 0.001 3.0822 0.0037 4.611 0.0014 0.7195 0.3758 0.6903 0.8603 0.3902 2.7926 -1.731 5.5866 -3.4599 8.3818 -5.1872 0.462 -0.2849 0.4751 -0.5826 0.0219 -0.8685 -2.9938 -1.8867 -5.9916 -3.767 -9.2667 -5.8243Z" stroke-width="1"></path>
  <path fill="#85b3df" d="M49.9191 83.2055c1.1147 0 2.0188 -0.9035 2.0188 -2.0182 0 -1.1144 -0.9041 -2.0182 -2.0188 -2.0182 -1.1146 0 -2.0187 0.9038 -2.0187 2.0182 0 1.1147 0.9041 2.0182 2.0187 2.0182Z" stroke-width="1"></path>
  <path fill="#85b3df" d="M42.1911 83.2055c1.1147 0 2.0187 -0.9035 2.0187 -2.0182 0 -1.1144 -0.904 -2.0182 -2.0187 -2.0182s-2.0187 0.9038 -2.0187 2.0182c0 1.1147 0.904 2.0182 2.0187 2.0182Z" stroke-width="1"></path>
  <path fill="#85b3df" d="M81.1882 90.9636c-5.3984 0 -9.7744 -4.3752 -9.7744 -9.7723 0 -5.3971 4.376 -9.7723 9.7744 -9.7723 5.3981 0 9.7747 4.3752 9.7747 9.7723 0 5.3971 -4.3766 9.7723 -9.7747 9.7723Zm0 -23.5811c-6.9421 0 -12.6864 5.1213 -13.6635 11.7905h-2.259c-0.9861 0 -1.7862 0.9039 -1.7862 2.0183 0 1.1147 0.8001 2.0182 1.7862 2.0182h2.259C68.5018 89.8788 74.2461 95 81.1882 95c7.6282 0 13.8122 -6.1825 13.8122 -13.8087 0 -7.6263 -6.184 -13.8088 -13.8122 -13.8088Z" stroke-width="1"></path>
</svg>