<svg xmlns="http://www.w3.org/2000/svg" fill="none" viewBox="0 0 96 96" id="Opsgenie--Streamline-Svg-Logos">
  <desc>
    Opsgenie Streamline Icon: https://streamlinehq.com
  </desc>
  <path fill="url(#a)" d="M47.9984 47.9109c12.9541 0 23.4554-10.5014 23.4554-23.4555C71.4538 11.5014 60.9525 1 47.9984 1S24.543 11.5014 24.543 24.4554c0 12.9541 10.5013 23.4555 23.4554 23.4555Z"></path>
  <path fill="url(#b)" d="M46 94.4269C30.6816 84.6551 17.9417 71.338 8.85788 55.6018c-.35113-.6307-.42749-1.3781-.21117-2.0669.21632-.6887.70629-1.2582 1.35499-1.575l17.7625-8.7169c1.2425-.6059 2.742-.1463 3.4316 1.0518 8.9803 15.0515 22.2593 27.0713 38.1282 34.5127-5.8525 5.8968-12.3335 11.1345-19.3271 15.6194-1.2229.7635-2.774.7635-3.9969 0Z"></path>
  <path fill="#2684ff" d="M49.9973 94.4269c15.3205-9.7693 28.0609-23.087 37.1422-38.8251.352-.6291.4303-1.3752.2165-2.0637-.2137-.6885-.7008-1.259-1.3472-1.5782L68.2331 43.243c-1.2425-.6059-2.742-.1463-3.4315 1.0518-8.9785 15.0531-22.258 27.0733-38.1283 34.5127 5.849 5.9007 12.3305 11.1388 19.3271 15.6194 1.2229.7635 2.774.7635 3.9969 0Z"></path>
  <defs>
    <linearGradient id="a" x1="2370.09" x2="2370.09" y1="780.657" y2="5596.65" gradientUnits="userSpaceOnUse">
      <stop stop-color="#2684ff"></stop>
      <stop offset=".82" stop-color="#0052cc"></stop>
    </linearGradient>
    <linearGradient id="b" x1="2512.17" x2="3773.63" y1="1664.03" y2="4304.14" gradientUnits="userSpaceOnUse">
      <stop stop-color="#2684ff"></stop>
      <stop offset=".62" stop-color="#0052cc"></stop>
    </linearGradient>
  </defs>
</svg>