<svg xmlns="http://www.w3.org/2000/svg" fill="none" viewBox="0 0 96 96" id="Ubuntu--Streamline-Svg-Logos">
  <desc>
    Ubuntu Streamline Icon: https://streamlinehq.com
  </desc>
  <path fill="#dd4814" d="M95 48.0008c0 25.9558 -21.0424 46.9988 -46.9999 46.9988C22.0421 94.9996 1 73.9566 1 48.0008 1 22.0434 22.0424 1.00098 48.0001 1.00098 73.9579 1.00098 95 22.0434 95 48.0008Z" stroke-width="1"></path>
  <path fill="#ffffff" d="M16.0414 41.7244c-3.4672 0 -6.27626 2.8093 -6.27626 6.2763 0 3.4653 2.80906 6.2744 6.27626 6.2744 3.4654 0 6.2744 -2.8091 6.2744 -6.2744 0 -3.467 -2.809 -6.2763 -6.2744 -6.2763Zm44.803 28.5197c-3.0014 1.7335 -4.0305 5.5691 -2.2967 8.5688 1.7316 3.0014 5.5672 4.0302 8.5686 2.2967 3.001 -1.7315 4.0301 -5.5672 2.2966 -8.5688 -1.7315 -2.9994 -5.5694 -4.0283 -8.5685 -2.2967ZM29.6715 48.0007c0 -6.2011 3.0801 -11.6796 7.7932 -14.9971l-4.5876 -7.6838c-5.4901 3.6699 -9.575 9.2777 -11.2726 15.8456 1.9808 1.6163 3.2487 4.0768 3.2487 6.835 0 2.7565 -1.2679 5.2171 -3.2487 6.8334 1.6954 6.5698 5.7803 12.1779 11.2726 15.8477l4.5876 -7.6856c-4.7131 -3.3156 -7.7932 -8.7938 -7.7932 -14.9952ZM48 29.6703c9.5752 0 17.4311 7.3416 18.2557 16.7044l8.9414 -0.1318c-0.44 -6.9122 -3.4596 -13.1175 -8.0994 -17.6804 -2.3859 0.9014 -5.1419 0.7635 -7.524 -0.6097 -2.3862 -1.377 -3.8823 -3.6999 -4.2913 -6.2215 -2.319 -0.6401 -4.7597 -0.9905 -7.283 -0.9905 -4.3378 0 -8.439 1.0189 -12.0803 2.8212l4.3601 7.8134c2.3456 -1.0916 4.9623 -1.7051 7.7208 -1.7051Zm0 36.6589c-2.7585 0 -5.3752 -0.6138 -7.7205 -1.7051l-4.3602 7.8131c3.6414 1.8045 7.7426 2.8236 12.0807 2.8236 2.5232 0 4.9639 -0.3506 7.2827 -0.9926 0.409 -2.5216 1.9057 -4.8423 4.2913 -6.2219 2.3838 -1.3753 5.1381 -1.5107 7.524 -0.6093 4.6398 -4.563 7.6594 -10.7682 8.0994 -17.6804l-8.9436 -0.1318C65.4311 58.99 57.5755 66.3292 48 66.3292Zm12.8422 -40.5758c3.0013 1.7333 6.8372 0.7066 8.5688 -2.2947 1.7335 -3.0014 0.7069 -6.8373 -2.2947 -8.5711 -3.0014 -1.7315 -6.837 -0.7027 -8.5711 2.2986 -1.7313 2.9997 -0.7025 6.8357 2.297 8.5672Z" stroke-width="1"></path>
</svg>